# xmcd
#
# Track frame offsets: 
#        150
#        15784
#        30369
#        44505
#        59482
#        71302
#        82832
#        96207
#        111390
#        125890
#        135067
#        146092
#        163342
#        176785
#        194162
#        207600
#        222525
#        232125
#
# Disc length: 3334 seconds
#
# Revision: 0
# Processed by: cddbd v1.4PL0 Copyright (c) Steve Scherf et al.
# Submitted via: ExactAudioCopy v0.90a11
#
DISCID=120d0412
DTITLE=Various Artist - The Greatest Country Collection Cd 1
DYEAR=1900
DGENRE=
TTITLE0=Why Not Me - The Judds
TTITLE1=Let Your Love Flow - The Bellamy Brothers
TTITLE2=Annie's Song - John Denver
TTITLE3=Both Sides Now - Anne Murray
TTITLE4=Some Broken Hearts Never Mend - Telly Savales
TTITLE5=Before The Next Teardrop Falls - Freddy Fender
TTITLE6=Jambalaya - Pat Boone
TTITLE7=Somewhere Between - Grant and Forsyth
TTITLE8=Rhinestone Cowboy - Glen Campbell
TTITLE9=Rawhide - Frankie Lane
TTITLE10=Here You Come Again - Billie Jo Spears
TTITLE11=Blue Bayou - Piet Veerman
TTITLE12=I Just Can't Help Believin' B.J. Thomas
TTITLE13=Together Again - Saskia and Serge
TTITLE14=Rose Garden - Lynn Anderson
TTITLE15=Maria - Arthur Ebeling
TTITLE16=My Sweet Country Home - Alabama
TTITLE17=Nothing's Changed, Nothing's New - Willie Nelson
EXTD=
EXTT0=
EXTT1=
EXTT2=
EXTT3=
EXTT4=
EXTT5=
EXTT6=
EXTT7=
EXTT8=
EXTT9=
EXTT10=
EXTT11=
EXTT12=
EXTT13=
EXTT14=
EXTT15=
EXTT16=
EXTT17=
PLAYORDER=
